<svg id="Laag_1" data-name="Laag 1" xmlns="http://www.w3.org/2000/svg" viewBox="0 0 25 194"><defs><style>.cls-1{fill:#3f3f3f;}.cls-1,.cls-2,.cls-3,.cls-4,.cls-5{stroke:#000;stroke-miterlimit:10;}.cls-2,.cls-5{fill:none;}.cls-2{stroke-linecap:round;}.cls-4{fill:#fff;}</style></defs><title>10blackcrayon</title><path class="cls-1" d="M20.88,32.32,15.34.67H9.55L3.25,32.16A5.79,5.79,0,0,0,.36,37.29V190a21.5,21.5,0,0,0,23.15,0V37.29A5.83,5.83,0,0,0,20.88,32.32Z"/><path class="cls-2" d="M1.25,36.7a24.28,24.28,0,0,0,11.36,2.46,24.1,24.1,0,0,0,9.87-2.46"/><path class="cls-3" d="M23.4,70.36a22.51,22.51,0,0,1-11.95,3.21A22.48,22.48,0,0,1,.37,70.36V65.69a22.23,22.23,0,0,0,23,0Z"/><path class="cls-3" d="M23.4,173.87a22.23,22.23,0,0,1-23,0V169.2a22.23,22.23,0,0,0,23,0Z"/><path class="cls-2" d="M4.17,32.72a16.81,16.81,0,0,0,8.43,1.92,17.06,17.06,0,0,0,7-1.92"/><path class="cls-4" d="M11.26,4.65Q12.54,18.8,13.83,33l.06.63.53.34a7.2,7.2,0,0,1,2.18,2.18,7.11,7.11,0,0,1,1.09,3.27v48.8a1.29,1.29,0,0,0,2.57,0v-49a9.6,9.6,0,0,0-1.49-4.46,9.37,9.37,0,0,0-2.43-2.55L13.82,4.41a1.29,1.29,0,1,0-2.56.24Z"/><path class="cls-2" d="M.37,52.28a22.23,22.23,0,0,0,23,0"/><path class="cls-2" d="M.37,185.82a22.23,22.23,0,0,0,23,0"/><ellipse class="cls-5" cx="8.24" cy="121.82" rx="4.37" ry="30.76"/><path class="cls-4" d="M20.14,179.92V151.53a1.29,1.29,0,0,0-2.57,0v28.54a1.45,1.45,0,0,0,1.16,1.54A1.48,1.48,0,0,0,20.14,179.92Z"/><path class="cls-4" d="M20.19,188.32c0-2.64,0-1.49-.05-4.13a1.29,1.29,0,1,0-2.57,0v4.34a1.5,1.5,0,0,0,1.16,1.54A1.54,1.54,0,0,0,20.19,188.32Z"/></svg>