<svg id="Laag_1" data-name="Laag 1" xmlns="http://www.w3.org/2000/svg" viewBox="0 0 25 194"><defs><style>.cls-1{fill:#fff;}.cls-1,.cls-2,.cls-3,.cls-4{stroke:#000;stroke-miterlimit:10;}.cls-2,.cls-4{fill:none;}.cls-2{stroke-linecap:round;}</style></defs><title>11whitecrayon</title><path class="cls-1" d="M21,31.86,15.41.21H9.62L3.32,31.69a5.81,5.81,0,0,0-2.9,5.14V189.56a21.52,21.52,0,0,0,23.16,0V36.83A5.84,5.84,0,0,0,21,31.86Z"/><path class="cls-2" d="M1.31,36.24a24.14,24.14,0,0,0,21.24,0"/><path class="cls-3" d="M23.47,69.89a22.25,22.25,0,0,1-23,0V65.23a22.45,22.45,0,0,0,11.08,3.21,22.52,22.52,0,0,0,12-3.21Z"/><path class="cls-3" d="M23.47,173.41a22.31,22.31,0,0,1-23,0v-4.67A22.45,22.45,0,0,0,11.51,172a22.52,22.52,0,0,0,12-3.21Z"/><path class="cls-2" d="M4.24,32.26a16.89,16.89,0,0,0,8.42,1.91,17,17,0,0,0,7-1.91"/><path class="cls-1" d="M11.32,4.18,13.9,32.49l0,.63.54.34a7.2,7.2,0,0,1,2.18,2.18,7.27,7.27,0,0,1,1.09,3.27v48.8a1.29,1.29,0,1,0,2.57,0v-49a9.68,9.68,0,0,0-1.48-4.45,9.52,9.52,0,0,0-2.43-2.55L13.89,4a1.29,1.29,0,0,0-2.57.23Z"/><path class="cls-2" d="M.43,51.82a22.31,22.31,0,0,0,23,0"/><path class="cls-2" d="M.43,185.36a22.45,22.45,0,0,0,11.08,3.21,22.52,22.52,0,0,0,12-3.21"/><ellipse class="cls-4" cx="8.31" cy="121.36" rx="4.37" ry="30.76"/><path class="cls-1" d="M20.2,179.46V151.07a1.29,1.29,0,1,0-2.57,0v28.54a1.46,1.46,0,0,0,1.17,1.54A1.48,1.48,0,0,0,20.2,179.46Z"/><path class="cls-1" d="M20.25,187.85c0-2.64,0-1.48-.05-4.12a1.29,1.29,0,1,0-2.57,0v4.34a1.5,1.5,0,0,0,1.17,1.53A1.53,1.53,0,0,0,20.25,187.85Z"/></svg>