<svg id="Laag_1" data-name="Laag 1" xmlns="http://www.w3.org/2000/svg" viewBox="0 0 150 218"><defs><style>.cls-1{fill:#fff;}.cls-2{fill:none;stroke:#000;stroke-miterlimit:10;}</style></defs><title>12background</title><path class="cls-1" d="M122.18,3.58c31.28,14.11,35.34,72.74,9.08,131s-72.91,94-104.18,79.87S-8.27,141.68,18,83.45,90.9-10.53,122.18,3.58Z"/><path class="cls-2" d="M131.26,134.55c-26.26,58.22-72.91,94-104.18,79.87S-8.27,141.68,18,83.45s72.9-94,104.18-79.87S157.52,76.32,131.26,134.55Z"/><path class="cls-1" d="M138.68,91.05a1.76,1.76,0,0,1-.33,0,1.55,1.55,0,0,1-1-.68,1.54,1.54,0,0,1-.22-1.18,135.38,135.38,0,0,0,3.13-28,87.56,87.56,0,0,0-2.9-23.32A48,48,0,0,0,129,20.44,29.56,29.56,0,0,0,107.89,9.11,1.57,1.57,0,0,1,108.05,6h.16a34.1,34.1,0,0,1,13.87,4.35,33.86,33.86,0,0,1,9.33,8.15,46.94,46.94,0,0,1,6.66,11.59c3.54,8.7,5.33,19.14,5.33,31a138.12,138.12,0,0,1-3.19,28.7,1.58,1.58,0,0,1-1.53,1.24Z"/><path d="M108.05,6.48h.11a33.62,33.62,0,0,1,13.67,4.28,33.21,33.21,0,0,1,9.19,8,46,46,0,0,1,6.58,11.46c3.52,8.64,5.3,19,5.3,30.85a137.84,137.84,0,0,1-3.18,28.6,1.07,1.07,0,0,1-1,.84.86.86,0,0,1-.23,0,1.06,1.06,0,0,1-.82-1.27,135.59,135.59,0,0,0,3.14-28.15,88.13,88.13,0,0,0-2.91-23.45,48.7,48.7,0,0,0-8.51-17.53A30.09,30.09,0,0,0,107.94,8.61a1.07,1.07,0,0,1,.11-2.13m0-1a2.06,2.06,0,0,0-.2,4.12,29.05,29.05,0,0,1,20.72,11.16,47.63,47.63,0,0,1,8.32,17.16,87.14,87.14,0,0,1,2.88,23.19,134.89,134.89,0,0,1-3.12,27.94,2.07,2.07,0,0,0,1.59,2.46,2.18,2.18,0,0,0,.44,0,2.07,2.07,0,0,0,2-1.63,138.67,138.67,0,0,0,3.2-28.81c0-11.78-1.79-22.43-5.37-31.23a46.91,46.91,0,0,0-6.73-11.71A33.22,33.22,0,0,0,108.26,5.49Z"/><path class="cls-1" d="M78.26,18.22a1.56,1.56,0,0,1-1.31-.7,1.58,1.58,0,0,1,.43-2.18,61.35,61.35,0,0,1,9.35-5.09,60.15,60.15,0,0,1,10.2-3.4,1.49,1.49,0,0,1,.36,0A1.57,1.57,0,0,1,98.82,8,1.56,1.56,0,0,1,97.65,9.9,57.14,57.14,0,0,0,79.12,18,1.53,1.53,0,0,1,78.26,18.22Z"/><path d="M97.29,7.3a1.07,1.07,0,0,1,.25,2.11,57.58,57.58,0,0,0-18.69,8.13,1,1,0,0,1-.59.18,1.08,1.08,0,0,1-.9-.48,1.06,1.06,0,0,1-.15-.8,1,1,0,0,1,.45-.68A59.71,59.71,0,0,1,97,7.33l.25,0m0-1a2,2,0,0,0-.48.06A60.78,60.78,0,0,0,86.53,9.79a59.88,59.88,0,0,0-9.42,5.14,2.07,2.07,0,0,0,1.15,3.79,2,2,0,0,0,1.14-.35,56.3,56.3,0,0,1,8.79-4.79,55.73,55.73,0,0,1,9.58-3.19,2.07,2.07,0,0,0-.48-4.09Z"/></svg>