<svg id="Laag_1" data-name="Laag 1" xmlns="http://www.w3.org/2000/svg" viewBox="0 0 195 231"><defs><style>.cls-1{fill:#fff;}.cls-2,.cls-3,.cls-4{fill:none;stroke:#000;}.cls-2,.cls-3{stroke-miterlimit:10;}.cls-3{stroke-linecap:round;}.cls-4{stroke-linejoin:round;}</style></defs><title>1size</title><path class="cls-1" d="M188.77,213.37l2-1.52.76,1a9.64,9.64,0,0,1-1.84,13.49l-2.68,2a9.63,9.63,0,0,1-13.49-1.84l-.56-.74,1.91-1.45a8.85,8.85,0,0,1,13.89-11Z"/><path class="cls-1" d="M128,129.13l62.82,82.72-2,1.52a8.85,8.85,0,0,0-13.89,11L173,225.79l-63-83a9.61,9.61,0,0,1-1.44-8.93l5,6.55a6,6,0,0,0,8.42,1.15l1.67-1.27a5.93,5.93,0,0,0,2.29-3.86,1.24,1.24,0,0,0,.79-.15,1.32,1.32,0,0,0,.51-1.8,12.12,12.12,0,0,0-1-1.51,11.92,11.92,0,0,0-2.5-2.46l-3.93-5.18A9.57,9.57,0,0,1,128,129.13ZM179.09,205a1.32,1.32,0,0,0,.25-1.85l-49.08-64.63a1.31,1.31,0,0,0-1.85-.26,1.33,1.33,0,0,0-.26,1.86l49.09,64.63A1.32,1.32,0,0,0,179.09,205Z"/><path class="cls-1" d="M179.34,203.19a1.32,1.32,0,0,1-2.1,1.6l-49.09-64.63a1.33,1.33,0,0,1,.26-1.86,1.31,1.31,0,0,1,1.85.26Z"/><path class="cls-1" d="M127.16,134.5a1.32,1.32,0,0,1-.51,1.8,1.24,1.24,0,0,1-.79.15,5.92,5.92,0,0,0-1.14-4.55l-1-1.37a11.92,11.92,0,0,1,2.5,2.46A12.12,12.12,0,0,1,127.16,134.5Z"/><path class="cls-1" d="M124.72,131.9a5.92,5.92,0,0,1,1.14,4.55,1.3,1.3,0,0,1-1-.67,9.76,9.76,0,0,0-3.9-3.85,9.38,9.38,0,0,0-3.72-1.06,1.32,1.32,0,0,1-1.11-.8,1.2,1.2,0,0,0,.86-.26,1.3,1.3,0,0,0,.4-1.58h.05a12,12,0,0,1,4.76,1.36,10.83,10.83,0,0,1,1.49.94Z"/><path class="cls-1" d="M124.85,135.78a1.3,1.3,0,0,0,1,.67,5.93,5.93,0,0,1-2.29,3.86l-1.67,1.27a6,6,0,0,1-8.42-1.15l-5-6.55a9.49,9.49,0,0,1,3.28-4.56l2-1.51,1.33,1.75a1.33,1.33,0,0,0,1,.51,1.32,1.32,0,0,0,1.11.8,9.37,9.37,0,0,1,6.84,3.72A9.26,9.26,0,0,1,124.85,135.78Z"/><path class="cls-1" d="M119.75,125.35l3.93,5.18a10.83,10.83,0,0,0-1.49-.94,12,12,0,0,0-4.76-1.36h-.05a1.22,1.22,0,0,0-.15-.27L116,126.35A9.48,9.48,0,0,1,119.75,125.35Z"/><path class="cls-1" d="M87.61,9.73c30.11,12.2,45.47,44.42,34.31,72s-44.62,40-74.72,27.78-45.47-44.42-34.31-72S57.51-2.47,87.61,9.73Zm25.12,34.5c2.48-2.48,1.28-7.71-2.68-11.68s-9.2-5.18-11.68-2.69-1.29,7.71,2.68,11.68S110.24,46.71,112.73,44.23Zm-1.55,47.71A5.29,5.29,0,1,0,104,84.19a49.32,49.32,0,0,1-4.19,3.49,52.09,52.09,0,0,1-10.39,6,48.1,48.1,0,0,1-30.93,2.47,49.93,49.93,0,0,1-9.82-3.58A5.29,5.29,0,0,0,44,102.06a60.72,60.72,0,0,0,11.9,4.34,58.79,58.79,0,0,0,37.68-3,62.13,62.13,0,0,0,12.52-7.22A58.05,58.05,0,0,0,111.18,91.94ZM93.07,26.49a5.29,5.29,0,0,0-2.51-7,60.37,60.37,0,0,0-11.94-4.21,59.3,59.3,0,0,0-19.06-1.41A58.71,58.71,0,0,0,41,18.64,62.6,62.6,0,0,0,28.53,26a61.48,61.48,0,0,0-5,4.28A5.29,5.29,0,1,0,30.78,38a48.52,48.52,0,0,1,4.16-3.53,51.81,51.81,0,0,1,10.32-6.1,48.22,48.22,0,0,1,30.9-2.79A50.29,50.29,0,0,1,86,29,5.29,5.29,0,0,0,93.07,26.49Z"/><path class="cls-1" d="M110,112.49l9.77,12.86a9.48,9.48,0,0,0-3.75,1l-8.7-11.47C108.22,114.12,109.11,113.32,110,112.49Z"/><path class="cls-1" d="M117,26.22a64.83,64.83,0,0,1-7,86.27l-2-2.64a6,6,0,0,0-8.41-1.15L97.89,110a6,6,0,0,0-1.15,8.42l2,2.64A64.84,64.84,0,1,1,117,26.22Zm4.9,55.47c11.16-27.54-4.2-59.76-34.31-72S24.05,10,12.89,37.51s4.2,59.76,34.31,72S110.76,109.24,121.92,81.69Z"/><path class="cls-1" d="M117.38,128.23a1.3,1.3,0,0,1-.4,1.58,1.2,1.2,0,0,1-.86.26,1.19,1.19,0,0,1-.11-.62A1.32,1.32,0,0,1,117.38,128.23Z"/><path class="cls-1" d="M117.38,128.23a1.32,1.32,0,0,0-1.37,1.22,1.19,1.19,0,0,0,.11.62,1.33,1.33,0,0,1-1-.51l-1.33-1.75.68-.52a8.75,8.75,0,0,1,1.53-.94l1.23,1.61A1.22,1.22,0,0,1,117.38,128.23Z"/><path class="cls-1" d="M107.3,114.88l8.7,11.47a8.75,8.75,0,0,0-1.53.94l-.68.52-8.54-11.25C106,116,106.63,115.46,107.3,114.88Z"/><path class="cls-1" d="M105.25,116.56l8.54,11.25-2,1.51a9.49,9.49,0,0,0-3.28,4.56L98.74,121a65.59,65.59,0,0,0,5.86-4Z"/><path class="cls-1" d="M110.05,32.55c4,4,5.16,9.2,2.68,11.68s-7.72,1.28-11.68-2.69-5.16-9.2-2.68-11.68S106.08,28.58,110.05,32.55Z"/><path class="cls-1" d="M111.45,84.46a5.29,5.29,0,0,1-.27,7.48,58.05,58.05,0,0,1-5.09,4.23,62.13,62.13,0,0,1-12.52,7.22,58.79,58.79,0,0,1-37.68,3A60.72,60.72,0,0,1,44,102.06a5.29,5.29,0,0,1,4.65-9.51,49.93,49.93,0,0,0,9.82,3.58,48.1,48.1,0,0,0,30.93-2.47,52.09,52.09,0,0,0,10.39-6A49.32,49.32,0,0,0,104,84.19,5.29,5.29,0,0,1,111.45,84.46Z"/><path class="cls-1" d="M108,109.85l2,2.64c-.87.83-1.76,1.63-2.68,2.39l-2.87-3.78a1.32,1.32,0,0,0-2.11,1.6l2.93,3.86-.65.5a65.59,65.59,0,0,1-5.86,4l-2-2.64A6,6,0,0,1,97.89,110l1.68-1.27A6,6,0,0,1,108,109.85Z"/><path class="cls-1" d="M104.43,111.1l2.87,3.78c-.67.58-1.35,1.14-2,1.68l-2.93-3.86a1.32,1.32,0,0,1,2.11-1.6Z"/><path class="cls-1" d="M90.56,19.44A5.29,5.29,0,1,1,86,29a50.29,50.29,0,0,0-9.86-3.47,48.22,48.22,0,0,0-30.9,2.79,51.81,51.81,0,0,0-10.32,6.1A48.52,48.52,0,0,0,30.78,38a5.29,5.29,0,1,1-7.29-7.68,61.48,61.48,0,0,1,5-4.28A62.6,62.6,0,0,1,41,18.64a58.71,58.71,0,0,1,18.58-4.82,59.3,59.3,0,0,1,19.06,1.41A60.37,60.37,0,0,1,90.56,19.44Z"/><path class="cls-2" d="M98.74,121A64.85,64.85,0,1,1,110,112.49"/><path class="cls-2" d="M108.51,133.88,98.74,121l-2-2.64A6,6,0,0,1,97.89,110l1.68-1.27a6,6,0,0,1,8.41,1.15l2,2.64,9.77,12.86"/><path class="cls-2" d="M116,126.35l-8.7-11.47-2.87-3.78a1.32,1.32,0,0,0-2.11,1.6"/><polyline class="cls-2" points="102.32 112.7 105.25 116.56 113.79 127.81"/><path class="cls-2" d="M190.78,211.85l.76,1a9.64,9.64,0,0,1-1.84,13.49l-2.68,2a9.63,9.63,0,0,1-13.49-1.84l-.56-.74-63-83a9.61,9.61,0,0,1-1.44-8.93,9.49,9.49,0,0,1,3.28-4.56l2-1.51.68-.52a8.75,8.75,0,0,1,1.53-.94,9.48,9.48,0,0,1,3.75-1,9.57,9.57,0,0,1,8.21,3.78Z"/><path class="cls-2" d="M128.15,140.16l49.09,64.63a1.32,1.32,0,0,0,2.1-1.6l-49.08-64.63a1.31,1.31,0,0,0-1.85-.26A1.33,1.33,0,0,0,128.15,140.16Z"/><path class="cls-2" d="M116.12,130.07a1.32,1.32,0,0,0,1.11.8,9.37,9.37,0,0,1,6.84,3.72,9.26,9.26,0,0,1,.78,1.19,1.3,1.3,0,0,0,1,.67,1.24,1.24,0,0,0,.79-.15,1.32,1.32,0,0,0,.51-1.8,12.12,12.12,0,0,0-1-1.51,11.92,11.92,0,0,0-2.5-2.46,10.83,10.83,0,0,0-1.49-.94,12,12,0,0,0-4.76-1.36h-.05a1.32,1.32,0,0,0-1.37,1.22A1.19,1.19,0,0,0,116.12,130.07Z"/><path class="cls-3" d="M175.42,225q-.28-.33-.54-.66a8.85,8.85,0,0,1,13.89-11,9.85,9.85,0,0,1,.7,1"/><path class="cls-2" d="M87.61,9.73c30.11,12.2,45.47,44.42,34.31,72s-44.62,40-74.72,27.78-45.47-44.42-34.31-72S57.51-2.47,87.61,9.73Z"/><path class="cls-2" d="M30.78,38a48.52,48.52,0,0,1,4.16-3.53,51.81,51.81,0,0,1,10.32-6.1,48.22,48.22,0,0,1,30.9-2.79A50.29,50.29,0,0,1,86,29a5.29,5.29,0,1,0,4.54-9.56,60.37,60.37,0,0,0-11.94-4.21,59.3,59.3,0,0,0-19.06-1.41A58.71,58.71,0,0,0,41,18.64,62.6,62.6,0,0,0,28.53,26a61.48,61.48,0,0,0-5,4.28A5.29,5.29,0,1,0,30.78,38Z"/><path class="cls-4" d="M110.05,32.55c4,4,5.16,9.2,2.68,11.68s-7.72,1.28-11.68-2.69-5.16-9.2-2.68-11.68S106.08,28.58,110.05,32.55Z"/><path class="cls-2" d="M104,84.19a49.32,49.32,0,0,1-4.19,3.49,52.09,52.09,0,0,1-10.39,6,48.1,48.1,0,0,1-30.93,2.47,49.93,49.93,0,0,1-9.82-3.58A5.29,5.29,0,0,0,44,102.06a60.72,60.72,0,0,0,11.9,4.34,58.79,58.79,0,0,0,37.68-3,62.13,62.13,0,0,0,12.52-7.22,58.05,58.05,0,0,0,5.09-4.23A5.29,5.29,0,1,0,104,84.19Z"/></svg>