<svg id="Laag_1" data-name="Laag 1" xmlns="http://www.w3.org/2000/svg" viewBox="0 0 227 238"><defs><style>.cls-1{fill:#fff;stroke:#000;stroke-miterlimit:10;}</style></defs><title>2random</title><path class="cls-1" d="M224,107l-74.47-8.15L191.6,25.19a3.25,3.25,0,0,0-.1-3.6,2.2,2.2,0,0,0-3.08-.31L134.13,58.9,119.62,2.56A2.22,2.22,0,0,0,117.17.79a3.28,3.28,0,0,0-2.5,2.49l-17,65.54-75-36.75a2.6,2.6,0,0,0-3.18,1.1,3.38,3.38,0,0,0-.22,3.72L67,108.69,12.18,134.76A3.54,3.54,0,0,0,10.29,138a2.37,2.37,0,0,0,2,2.49L64.53,145l-63,87.3a3.33,3.33,0,0,0-.15,3.88,2.25,2.25,0,0,0,3.31.22L85.32,171,94,228.36a2.28,2.28,0,0,0,2.2,2.1,3.08,3.08,0,0,0,2.69-2.13l22.37-59.07,48,52.85a2.28,2.28,0,0,0,3.27,0,3.61,3.61,0,0,0,1-3.77L146,140.91l77.88-28.12a3.51,3.51,0,0,0,2.14-3.17A2.44,2.44,0,0,0,224,107Zm-62.29,9.24-34.17,12.39,12.12,34.13a1.61,1.61,0,0,1-.46,1.66,1,1,0,0,1-1.43,0L116.7,141.09l-9.82,26a1.35,1.35,0,0,1-1.18.93,1,1,0,0,1-1-.92l-3.79-25.29-35.4,28.82a1,1,0,0,1-1.45-.09,1.49,1.49,0,0,1,.06-1.72l27.66-38.46-22.91-2a1,1,0,0,1-.89-1.09,1.58,1.58,0,0,1,.83-1.44l24-11.49-21-31.63A1.49,1.49,0,0,1,72,81.12a1.13,1.13,0,0,1,1.4-.48l32.91,16.19L113.81,68a1.44,1.44,0,0,1,1.1-1.1,1,1,0,0,1,1.07.78l6.37,24.82,23.82-16.57a1,1,0,0,1,1.35.14,1.43,1.43,0,0,1,0,1.58L129.11,110l32.68,3.59a1.07,1.07,0,0,1,.87,1.18A1.54,1.54,0,0,1,161.72,116.2Z"/></svg>