<svg id="Laag_1" data-name="Laag 1" xmlns="http://www.w3.org/2000/svg" viewBox="0 0 168 206"><defs><style>.cls-1,.cls-3{fill:#fff;}.cls-2{fill:none;}.cls-2,.cls-3{stroke:#000;stroke-miterlimit:10;}</style></defs><title>3clean</title><rect class="cls-1" x="0.5" y="0.5" width="167" height="205" rx="5.68"/><path d="M161.82,1A5.18,5.18,0,0,1,167,6.18V199.82a5.18,5.18,0,0,1-5.18,5.18H6.18A5.18,5.18,0,0,1,1,199.82V6.18A5.18,5.18,0,0,1,6.18,1H161.82m0-1H6.18A6.18,6.18,0,0,0,0,6.18V199.82A6.18,6.18,0,0,0,6.18,206H161.82a6.18,6.18,0,0,0,6.18-6.18V6.18A6.18,6.18,0,0,0,161.82,0Z"/><line class="cls-2" x1="84" y1="0.5" x2="84" y2="205.5"/><line class="cls-2" x1="125.75" y1="1" x2="125.75" y2="206"/><line class="cls-2" x1="42.25" y1="1" x2="42.25" y2="206"/><line class="cls-2" x1="168" y1="69" x2="0.41" y2="69"/><line class="cls-2" x1="167.59" y1="137" y2="137"/><path class="cls-3" d="M89.5,7h67.88a4.69,4.69,0,0,1,1.25.27,3.54,3.54,0,0,1,1.7,1.17A3.42,3.42,0,0,1,161,10V50.5a1.5,1.5,0,0,0,3,0V9.5a1.58,1.58,0,0,0-.05-.38,6.68,6.68,0,0,0-4.29-4.67,8.41,8.41,0,0,0-2-.45H89.5a1.5,1.5,0,0,0,0,3Z"/><path class="cls-3" d="M115.78,171c0,.7-.4,1.25-.86,1.23h-.31a10.62,10.62,0,0,0-4.8,1.15c-3.75,1.88-6.29,5.69-7.92,9.18a37.19,37.19,0,0,0-1.78,4.65c-.38,1.26-.57,2.12-.61,2.27a36.13,36.13,0,0,0-.76,7.13h0c0,.71-.39,1.27-.85,1.26s-.84-.57-.84-1.27h0a33,33,0,0,0-.76-7.1,24.93,24.93,0,0,0-6.42-12.27,18.74,18.74,0,0,0-5.08-3.84,12.53,12.53,0,0,0-4-1.16c-.44-.05-.78-.61-.78-1.28s.35-1.22.79-1.26a11.72,11.72,0,0,0,4-1.15c3.86-1.88,6.57-5.66,8.36-9.12a36.31,36.31,0,0,0,2.76-7.06,38.44,38.44,0,0,0,1.15-7.18c0-.67.43-1.17.89-1.14s.8.59.8,1.27a34.89,34.89,0,0,0,.76,7.12,26.38,26.38,0,0,0,5.59,11.67,18,18,0,0,0,4.36,3.86,12.23,12.23,0,0,0,5.5,1.73h0C115.43,169.76,115.79,170.34,115.78,171Z"/></svg>