<svg id="Laag_1" data-name="Laag 1" xmlns="http://www.w3.org/2000/svg" viewBox="0 0 150 218"><defs><style>.cls-1{fill:#fff;}.cls-2{fill:#ededed;}.cls-3{fill:none;stroke:#000;stroke-miterlimit:10;}</style></defs><title>4background</title><path class="cls-1" d="M122.35,4.07c23.22,10.47,31.41,45.55,23.28,86.76a55.32,55.32,0,0,1-7.21,15,44.11,44.11,0,0,1-9.59,10.23c-19.12,14.69-44.51,7.68-63.68,27.76-14.65,15.33-25,45.81-36.21,56.3L27,201.79c-1.65,1.25-4.73,3.22-8.38,2.77a11.47,11.47,0,0,1-7.12-4.33l0,0C-4.12,175.94-2.32,129.72,18.4,83.76,44.6,25.68,91.14-10,122.35,4.07Z"/><path class="cls-1" d="M27,201.79l.68-.53c.42-.33.84-.7,1.25-1.09l100-84-.07-.09a44.11,44.11,0,0,0,9.59-10.23,55.32,55.32,0,0,0,7.21-15,203.07,203.07,0,0,1-14.21,43.91c-26.21,58.08-72.75,93.77-104,79.69a37.26,37.26,0,0,1-15.95-14.2,11.47,11.47,0,0,0,7.12,4.33C22.28,205,25.36,203,27,201.79Z"/><path class="cls-1" d="M128.83,116.11l.07.09-100,84c11.19-10.49,21.56-41,36.21-56.3C84.32,123.79,109.71,130.8,128.83,116.11Z"/><path class="cls-2" d="M27,201.79l1.93-1.62c-.41.39-.83.76-1.25,1.09Z"/><path class="cls-3" d="M11.49,200.21C-4.12,175.94-2.32,129.72,18.4,83.76,44.6,25.68,91.14-10,122.35,4.07c23.22,10.47,31.41,45.55,23.28,86.76a203.07,203.07,0,0,1-14.21,43.91c-26.21,58.08-72.75,93.77-104,79.69a37.26,37.26,0,0,1-15.95-14.2"/><path class="cls-3" d="M10.4,198.78a17.75,17.75,0,0,0,1.09,1.43l0,0a11.47,11.47,0,0,0,7.12,4.33c3.65.45,6.73-1.52,8.38-2.77l.68-.53c.42-.33.84-.7,1.25-1.09,11.19-10.49,21.56-41,36.21-56.3,19.17-20.08,44.56-13.07,63.68-27.76a44.11,44.11,0,0,0,9.59-10.23,55.32,55.32,0,0,0,7.21-15c.07-.23.14-.43.19-.64"/><path class="cls-3" d="M128.9,116.2l-100,84L27,201.79l-1.33,1.12"/><path class="cls-1" d="M138.81,91.34a1.84,1.84,0,0,1-.33,0,1.55,1.55,0,0,1-1.2-1.86,134.63,134.63,0,0,0,3.12-28,87.6,87.6,0,0,0-2.89-23.27,48,48,0,0,0-8.4-17.3,30.73,30.73,0,0,0-8.43-7.39A30.38,30.38,0,0,0,108.1,9.59,1.62,1.62,0,0,1,107,9a1.57,1.57,0,0,1,1.21-2.56h.16a32.69,32.69,0,0,1,23.15,12.47A46.7,46.7,0,0,1,138.2,30.5c3.53,8.68,5.32,19.1,5.32,31a138.21,138.21,0,0,1-3.18,28.64,1.58,1.58,0,0,1-1.53,1.23Z"/><path d="M108.25,7h.11a32.16,32.16,0,0,1,22.81,12.28,46.36,46.36,0,0,1,6.57,11.44c3.5,8.62,5.28,19,5.28,30.78A137.09,137.09,0,0,1,139.85,90a1.07,1.07,0,0,1-1,.84.9.9,0,0,1-.23,0,1.08,1.08,0,0,1-.67-.46,1.07,1.07,0,0,1-.14-.8,135.68,135.68,0,0,0,3.13-28.09A87.75,87.75,0,0,0,138,38.07a48.35,48.35,0,0,0-8.49-17.48,29.94,29.94,0,0,0-21.35-11.5,1.07,1.07,0,0,1-1-1.17,1.06,1.06,0,0,1,1.06-1m0-1a2.06,2.06,0,0,0-.2,4.11,30.23,30.23,0,0,1,12.38,3.86,30,30,0,0,1,8.29,7.27A47.47,47.47,0,0,1,137,38.34a87.11,87.11,0,0,1,2.87,23.13,134.29,134.29,0,0,1-3.11,27.88,2.06,2.06,0,0,0,1.59,2.45,2.09,2.09,0,0,0,.43,0,2.05,2.05,0,0,0,2-1.63A138,138,0,0,0,144,61.47c0-11.76-1.79-22.38-5.36-31.16A46.66,46.66,0,0,0,132,18.63,33.16,33.16,0,0,0,108.46,6Z"/><path class="cls-1" d="M78.53,18.68a1.57,1.57,0,0,1-.87-2.87A61,61,0,0,1,87,10.72,61.72,61.72,0,0,1,97.16,7.33a1.47,1.47,0,0,1,.36,0A1.56,1.56,0,0,1,99,8.5a1.54,1.54,0,0,1-.19,1.18,1.58,1.58,0,0,1-1,.7,56.64,56.64,0,0,0-18.49,8,1.53,1.53,0,0,1-.86.26Z"/><path d="M97.52,7.79a1.06,1.06,0,0,1,.24,2.1A58.46,58.46,0,0,0,88,13.13,57.84,57.84,0,0,0,79.12,18a1,1,0,0,1-.59.18,1.08,1.08,0,0,1-1-1.28,1.08,1.08,0,0,1,.46-.67,59.57,59.57,0,0,1,9.24-5.05A60.94,60.94,0,0,1,97.27,7.82a1.07,1.07,0,0,1,.25,0m0-1a2,2,0,0,0-.48.06A60.6,60.6,0,0,0,77.38,15.4a2.06,2.06,0,0,0,1.15,3.78,2,2,0,0,0,1.14-.35,56.83,56.83,0,0,1,8.76-4.78A58,58,0,0,1,98,10.86a2.06,2.06,0,0,0-.47-4.07Z"/></svg>