<svg id="Laag_1" data-name="Laag 1" xmlns="http://www.w3.org/2000/svg" viewBox="0 0 213 225"><defs><style>.cls-1{fill:#fff;}</style></defs><title>5colorbox</title><rect class="cls-1" x="0.5" y="0.5" width="212" height="224" rx="22.4"/><path d="M190.1,1A21.93,21.93,0,0,1,212,22.9V202.1A21.93,21.93,0,0,1,190.1,224H22.9A21.93,21.93,0,0,1,1,202.1V22.9A21.93,21.93,0,0,1,22.9,1H190.1m0-1H22.9A22.9,22.9,0,0,0,0,22.9V202.1A22.9,22.9,0,0,0,22.9,225H190.1A22.9,22.9,0,0,0,213,202.1V22.9A22.9,22.9,0,0,0,190.1,0Z"/><path d="M187.21,7.57a17.72,17.72,0,0,1,17.69,17.7v175A17.72,17.72,0,0,1,187.21,218H26.14A17.72,17.72,0,0,1,8.45,200.31v-175A17.72,17.72,0,0,1,26.14,7.57H187.21m0-1H26.14A18.69,18.69,0,0,0,7.45,25.27v175A18.69,18.69,0,0,0,26.14,219H187.21a18.69,18.69,0,0,0,18.69-18.69v-175a18.69,18.69,0,0,0-18.69-18.7Z"/></svg>