<svg id="Laag_1" data-name="Laag 1" xmlns="http://www.w3.org/2000/svg" viewBox="0 0 25 194"><defs><style>.cls-1{fill:#ef4206;}.cls-1,.cls-2,.cls-3,.cls-4,.cls-5{stroke:#000;stroke-miterlimit:10;}.cls-2,.cls-5{fill:none;}.cls-2{stroke-linecap:round;}.cls-4{fill:#fff;}</style></defs><title>6redcrayon</title><path class="cls-1" d="M21.23,32.32,15.69.67H9.9L3.61,32.16a5.78,5.78,0,0,0-2.9,5.13V190a21.72,21.72,0,0,0,11.38,3.38A21.72,21.72,0,0,0,23.86,190V37.29A5.83,5.83,0,0,0,21.23,32.32Z"/><path class="cls-2" d="M1.6,36.7A24.28,24.28,0,0,0,13,39.16a24.1,24.1,0,0,0,9.87-2.46"/><path class="cls-3" d="M23.75,70.36A22.51,22.51,0,0,1,11.8,73.57,22.48,22.48,0,0,1,.72,70.36V65.69a22.23,22.23,0,0,0,23,0Z"/><path class="cls-3" d="M23.75,173.87a22.23,22.23,0,0,1-23,0V169.2a22.23,22.23,0,0,0,23,0Z"/><path class="cls-2" d="M4.52,32.72A16.81,16.81,0,0,0,13,34.64a17.06,17.06,0,0,0,7-1.92"/><path class="cls-4" d="M11.61,4.65Q12.89,18.8,14.18,33l.06.63.53.34A7.2,7.2,0,0,1,17,36.11,7.11,7.11,0,0,1,18,39.38v48.8a1.29,1.29,0,0,0,2.57,0v-49a9.6,9.6,0,0,0-1.49-4.46,9.37,9.37,0,0,0-2.43-2.55L14.17,4.41a1.29,1.29,0,1,0-2.56.24Z"/><path class="cls-2" d="M.72,52.28a22.23,22.23,0,0,0,23,0"/><path class="cls-2" d="M.72,185.82a22.23,22.23,0,0,0,23,0"/><ellipse class="cls-5" cx="8.59" cy="121.82" rx="4.37" ry="30.76"/><path class="cls-4" d="M20.49,179.92V151.53a1.29,1.29,0,0,0-2.57,0v28.54a1.45,1.45,0,0,0,1.16,1.54A1.48,1.48,0,0,0,20.49,179.92Z"/><path class="cls-4" d="M20.54,188.32c0-2.64,0-1.49-.05-4.13a1.29,1.29,0,1,0-2.57,0v4.34a1.5,1.5,0,0,0,1.16,1.54A1.54,1.54,0,0,0,20.54,188.32Z"/></svg>