<svg id="Laag_1" data-name="Laag 1" xmlns="http://www.w3.org/2000/svg" viewBox="0 0 25 194"><defs><style>.cls-1{fill:#faff31;}.cls-1,.cls-2,.cls-3,.cls-4,.cls-5{stroke:#000;stroke-miterlimit:10;}.cls-2,.cls-5{fill:none;}.cls-2{stroke-linecap:round;}.cls-4{fill:#fff;}</style></defs><title>7yellowcrayon</title><path class="cls-1" d="M21.15,32.32,15.6.67H9.81L3.52,32.16a5.8,5.8,0,0,0-2.9,5.13V190A21.72,21.72,0,0,0,12,193.41,21.77,21.77,0,0,0,23.78,190V37.29A5.85,5.85,0,0,0,21.15,32.32Z"/><path class="cls-2" d="M1.51,36.7a24.3,24.3,0,0,0,11.37,2.46,24.09,24.09,0,0,0,9.86-2.46"/><path class="cls-3" d="M23.67,70.36a22.52,22.52,0,0,1-12,3.21A22.52,22.52,0,0,1,.63,70.36V65.69a22.25,22.25,0,0,0,23,0Z"/><path class="cls-3" d="M23.67,173.87a22.25,22.25,0,0,1-23,0V169.2a22.25,22.25,0,0,0,23,0Z"/><path class="cls-2" d="M4.44,32.72a16.77,16.77,0,0,0,8.42,1.92,17,17,0,0,0,7-1.92"/><path class="cls-4" d="M11.52,4.65Q12.81,18.8,14.09,33l.06.63.53.34a7,7,0,0,1,2.18,2.18A7.11,7.11,0,0,1,18,39.38v48.8a1.29,1.29,0,0,0,2.57,0v-49A9.6,9.6,0,0,0,19,34.72a9.36,9.36,0,0,0-2.42-2.55Q15.35,18.3,14.08,4.41a1.29,1.29,0,1,0-2.56.24Z"/><path class="cls-2" d="M.63,52.28a22.25,22.25,0,0,0,23,0"/><path class="cls-2" d="M.63,185.82a22.25,22.25,0,0,0,23,0"/><ellipse class="cls-5" cx="8.5" cy="121.82" rx="4.37" ry="30.76"/><path class="cls-4" d="M20.4,179.92V151.53a1.29,1.29,0,0,0-2.57,0v28.54A1.46,1.46,0,0,0,19,181.61,1.48,1.48,0,0,0,20.4,179.92Z"/><path class="cls-4" d="M20.45,188.32c0-2.64,0-1.49-.05-4.13a1.29,1.29,0,1,0-2.57,0v4.34A1.5,1.5,0,0,0,19,190.07,1.54,1.54,0,0,0,20.45,188.32Z"/></svg>