<svg id="Laag_1" data-name="Laag 1" xmlns="http://www.w3.org/2000/svg" viewBox="0 0 25 194"><defs><style>.cls-1{fill:#24ce00;}.cls-1,.cls-2,.cls-3,.cls-4,.cls-5{stroke:#000;stroke-miterlimit:10;}.cls-2,.cls-5{fill:none;}.cls-2{stroke-linecap:round;}.cls-4{fill:#fff;}</style></defs><title>8greencrayon</title><path class="cls-1" d="M21.06,32.32,15.52.67H9.73L3.43,32.16a5.8,5.8,0,0,0-2.9,5.13V190a21.52,21.52,0,0,0,23.16,0V37.29A5.85,5.85,0,0,0,21.06,32.32Z"/><path class="cls-2" d="M1.42,36.7a24.33,24.33,0,0,0,11.37,2.46,24.1,24.1,0,0,0,9.87-2.46"/><path class="cls-3" d="M23.58,70.36a22.52,22.52,0,0,1-12,3.21A22.55,22.55,0,0,1,.54,70.36V65.69a22.25,22.25,0,0,0,23,0Z"/><path class="cls-3" d="M23.58,173.87a22.52,22.52,0,0,1-12,3.21A22.45,22.45,0,0,1,.54,173.87V169.2a22.25,22.25,0,0,0,23,0Z"/><path class="cls-2" d="M4.35,32.72a16.77,16.77,0,0,0,8.42,1.92,17,17,0,0,0,7-1.92"/><path class="cls-4" d="M11.43,4.65,14,33l.05.63.54.34a7.11,7.11,0,0,1,3.27,5.45v48.8a1.29,1.29,0,0,0,2.57,0v-49A9.68,9.68,0,0,0,19,34.72a9.52,9.52,0,0,0-2.43-2.55L14,4.41a1.29,1.29,0,0,0-2.57.24Z"/><path class="cls-2" d="M.54,52.28a22.45,22.45,0,0,0,11.08,3.21,22.52,22.52,0,0,0,12-3.21"/><path class="cls-2" d="M.54,185.82a22.25,22.25,0,0,0,23,0"/><ellipse class="cls-5" cx="8.42" cy="121.82" rx="4.37" ry="30.76"/><path class="cls-4" d="M20.31,179.92V151.53a1.29,1.29,0,0,0-2.57,0v28.54a1.46,1.46,0,0,0,1.17,1.54A1.48,1.48,0,0,0,20.31,179.92Z"/><path class="cls-4" d="M20.36,188.32c0-2.64,0-1.49-.05-4.13a1.29,1.29,0,1,0-2.57,0v4.34a1.5,1.5,0,0,0,1.17,1.54A1.53,1.53,0,0,0,20.36,188.32Z"/></svg>