<svg id="Laag_1" data-name="Laag 1" xmlns="http://www.w3.org/2000/svg" viewBox="0 0 25 194"><defs><style>.cls-1{fill:#000ced;}.cls-1,.cls-2,.cls-3,.cls-4,.cls-5{stroke:#000;stroke-miterlimit:10;}.cls-2,.cls-5{fill:none;}.cls-2{stroke-linecap:round;}.cls-4{fill:#fff;}</style></defs><title>9bluecrayon</title><path class="cls-1" d="M20.88,32.62,15.3,1H9.51L3.25,32.47A5.82,5.82,0,0,0,.36,37.61L.53,190.35a21.55,21.55,0,0,0,23.16,0L23.52,37.58A5.83,5.83,0,0,0,20.88,32.62Z"/><path class="cls-2" d="M1.25,37a24.11,24.11,0,0,0,21.23,0"/><path class="cls-3" d="M23.44,70.65a22.27,22.27,0,0,1-23,0V66a22.25,22.25,0,0,0,23,0Z"/><path class="cls-3" d="M23.56,174.16a22.28,22.28,0,0,1-23,0v-4.67a22.24,22.24,0,0,0,23,0Z"/><path class="cls-2" d="M4.17,33a16.72,16.72,0,0,0,8.43,1.91,16.81,16.81,0,0,0,7-1.92"/><path class="cls-4" d="M11.22,5l2.61,28.31.06.63.53.34a7.2,7.2,0,0,1,2.18,2.18,7.29,7.29,0,0,1,1.1,3.26v-.1l.06,48.91A1.28,1.28,0,0,0,19,89.76a1.29,1.29,0,0,0,1.29-1.29l-.06-48.9v-.1A9.61,9.61,0,0,0,18.77,35a9.37,9.37,0,0,0-2.43-2.55L13.79,4.72A1.29,1.29,0,1,0,11.22,5Z"/><path class="cls-2" d="M.39,52.6a22.27,22.27,0,0,0,23,0"/><path class="cls-2" d="M.54,186.14a22.24,22.24,0,0,0,23,0"/><ellipse class="cls-5" cx="8.34" cy="122.13" rx="4.37" ry="30.76" transform="translate(-0.14 0.01) rotate(-0.06)"/><path class="cls-4" d="M20.3,180.22s0-12.09,0-28.39a1.29,1.29,0,1,0-2.57,0c0,16.3,0,12.19,0,28.49v.05a1.46,1.46,0,0,0,1.16,1.54A1.48,1.48,0,0,0,20.3,180.22Z"/><path class="cls-4" d="M20.36,188.61c0-2.64,0-1.48-.06-4.12a1.29,1.29,0,1,0-2.57,0v4.34a1.48,1.48,0,0,0,1.16,1.53A1.53,1.53,0,0,0,20.36,188.61Z"/></svg>