<svg id="Laag_1" data-name="Laag 1" xmlns="http://www.w3.org/2000/svg" viewBox="0 0 545 302"><defs><style>.cls-1{fill:#fff;stroke:#1d1d1b;stroke-linecap:round;stroke-linejoin:round;}</style></defs><title>object</title><path class="cls-1" d="M525.1,303.89l-1.06,0c-1.07-8.74-2.28-17.44-3.76-26.06l-.27-1.6-.28-1.63c-.2-1.06-.38-2.14-.58-3.22-.42-2.13-.79-4.3-1.25-6.43-.84-4.27-1.8-8.53-2.77-12.77A390.42,390.42,0,0,0,500,202.44q-4.62-12.13-10-23.94c-.92-1.95-1.81-3.93-2.72-5.88s-1.88-3.89-2.82-5.84L481.56,161c-.47-1-1-1.91-1.5-2.87l-1.51-2.87c-1-1.91-2.07-3.79-3.14-5.68l-1.59-2.83-1.64-2.8-1.66-2.79c-.27-.45-.54-.92-.83-1.39l-.86-1.37c-1.16-1.84-2.29-3.68-3.47-5.5l-3.6-5.41c-.6-.9-1.21-1.81-1.84-2.71s-1.25-1.78-1.86-2.67q-3.76-5.35-7.7-10.51a292.36,292.36,0,0,0-35.12-38.4L412.84,71c-.81-.74-1.64-1.45-2.45-2.17-1.62-1.44-3.28-2.83-4.94-4.24-.83-.7-1.68-1.39-2.53-2.07s-1.66-1.39-2.52-2.06c-1.71-1.33-3.41-2.7-5.16-4-.27-.22-.54-.42-.83-.63A62.32,62.32,0,0,1,397.89,61a69.54,69.54,0,0,1,7.25,16.74,71.84,71.84,0,0,1,2,9,74,74,0,0,1,.81,9.18,78.46,78.46,0,0,1-.34,9.22,89.71,89.71,0,0,1-1.36,9.11,98.18,98.18,0,0,1-5.33,17.55,123.64,123.64,0,0,1-8.12,16.34,152.28,152.28,0,0,1-10.15,15L381.23,165l-1.41,1.76-1.44,1.77c-.47.58-1,1.14-1.46,1.71l-3,3.4c-.25.28-.49.57-.74.86l-.78.81-1.53,1.66-1.53,1.64c-.53.54-1,1.1-1.57,1.63l-3.19,3.17L363,185l-1.66,1.53-3.3,3-.41.38-.44.36-.85.74-1.69,1.48L353,194l-.85.72-.89.7-3.49,2.83-.89.69-.88.7L344.16,201l-3.6,2.68-3.67,2.58c-2.41,1.75-4.94,3.36-7.43,5-2,1.35-3.19,2-3.78,2.38,0,0-2.61,1.57-5.37,3C283.68,236,171.8,268.91,171.8,268.91s-9.43,2.78-18.06,4.73l-3.63.81c-1.21.26-2.42.53-3.64.78l-8.6,1.84-8.63,1.78-2.16.44-2.16.41-4.32.85-4.32.85-4.33.81-8.68,1.59-8.67,1.49c-1.45.26-2.91.49-4.35.72l-4.35.71-4.34.7-4.37.63-4.35.65c-1.46.22-2.9.43-4.36.61l-8.75,1.16c-11.65,1.42-23.34,2.63-35,3.5S1.24,295.3-10.5,295.45l0-1q17.56-.84,35-2.62c11.65-1.22,23.25-2.76,34.81-4.52s23.07-3.88,34.54-6.12l8.6-1.73c2.87-.58,5.72-1.21,8.59-1.8l4.29-.92,4.27-1,4.28-.95,4.29-1,8.53-2,8.55-2c2.83-.67,5.68-1.39,8.52-2.07l2.07-.53c5.92-1.55,11.94-3.26,12.29-3.36,0,0,114.1-33.27,152.45-58.9,1.63-1.09,3.25-2.2,3.25-2.2,2.77-1.9,5.14-3.6,7-5l3.46-2.56,3.4-2.63,1.69-1.32c.29-.21.58-.45.85-.66l.83-.69,3.32-2.72.83-.69.81-.7,1.62-1.41,1.61-1.41.81-.7.41-.36.4-.36,3.14-2.9,1.59-1.45,1.53-1.51,3.06-3c.51-.48,1-1,1.48-1.53l1.5-1.53,1.48-1.55.74-.78c.25-.25.49-.52.72-.79l2.85-3.18c.49-.54,1-1.06,1.42-1.6l1.39-1.61,1.37-1.64,1.36-1.66A151,151,0,0,0,384.44,143a119.63,119.63,0,0,0,8.08-14.82,96.18,96.18,0,0,0,5.64-15.82q1-4.07,1.68-8.21a77.88,77.88,0,0,0,.81-8.31,68.5,68.5,0,0,0-6.89-32.59,58.25,58.25,0,0,0-9.52-14c-.72-.77-1.46-1.53-2.22-2.27q-4.08-2.76-8.26-5.34L371,39.91l-1.39-.85-1.42-.83-2.82-1.66-.7-.41-.7-.4L362.51,35c-3.79-2.16-7.65-4.2-11.53-6.19-7.79-3.93-15.78-7.5-23.9-10.75S310.67,12,302.26,9.47c-4.2-1.28-8.42-2.42-12.68-3.5-2.12-.51-4.25-1-6.4-1.52s-4.29-1-6.44-1.4l.2-1a288.91,288.91,0,0,1,99.52,35.12c7.71,4.43,15.17,9.27,22.42,14.41,1.83,1.28,3.59,2.59,5.4,3.91.9.67,1.76,1.35,2.65,2s1.77,1.35,2.65,2c1.73,1.39,3.5,2.74,5.19,4.17.87.72,1.74,1.4,2.58,2.12L419.9,68A299.68,299.68,0,0,1,457,106.37q4.21,5.2,8.21,10.54l2,2.65q1,1.32,2,2.67l3.93,5.43,3.81,5.5.94,1.39c.32.47.61.93.92,1.39l1.84,2.81,1.82,2.81,1.75,2.85c1.17,1.91,2.36,3.81,3.46,5.76a262.64,262.64,0,0,1,22.29,48.71,295,295,0,0,1,12.54,52A272.66,272.66,0,0,1,525.1,303.89Z"/></svg>