<svg id="Laag_1" data-name="Laag 1" xmlns="http://www.w3.org/2000/svg" viewBox="0 0 304 343"><defs><style>.cls-1{fill:#fff;}.cls-2,.cls-3,.cls-4{fill:none;stroke:#000;}.cls-2,.cls-3{stroke-miterlimit:10;}.cls-3{stroke-linecap:round;}.cls-4{stroke-linejoin:round;}</style></defs><title>Website sketch3</title><path class="cls-1" d="M247.27,273.37l2-1.52.76,1a9.64,9.64,0,0,1-1.84,13.49l-2.68,2A9.63,9.63,0,0,1,232,286.53l-.56-.74,1.91-1.45a8.85,8.85,0,0,1,13.89-11Z"/><path class="cls-1" d="M186.46,189.13l62.82,82.72-2,1.52a8.85,8.85,0,0,0-13.89,11l-1.91,1.45-63-83a9.61,9.61,0,0,1-1.44-8.93l5,6.55a6,6,0,0,0,8.42,1.15l1.67-1.27a5.93,5.93,0,0,0,2.29-3.86,1.24,1.24,0,0,0,.79-.15,1.32,1.32,0,0,0,.51-1.8,12.12,12.12,0,0,0-1-1.51,11.92,11.92,0,0,0-2.5-2.46l-3.93-5.18A9.57,9.57,0,0,1,186.46,189.13ZM237.59,265a1.32,1.32,0,0,0,.25-1.85l-49.08-64.63a1.31,1.31,0,0,0-1.85-.26,1.33,1.33,0,0,0-.26,1.86l49.09,64.63A1.32,1.32,0,0,0,237.59,265Z"/><path class="cls-1" d="M237.84,263.19a1.32,1.32,0,1,1-2.1,1.6l-49.09-64.63a1.33,1.33,0,0,1,.26-1.86,1.31,1.31,0,0,1,1.85.26Z"/><path class="cls-1" d="M185.66,194.5a1.32,1.32,0,0,1-.51,1.8,1.24,1.24,0,0,1-.79.15,5.92,5.92,0,0,0-1.14-4.55l-1-1.37a11.92,11.92,0,0,1,2.5,2.46A12.12,12.12,0,0,1,185.66,194.5Z"/><path class="cls-1" d="M183.22,191.9a5.92,5.92,0,0,1,1.14,4.55,1.3,1.3,0,0,1-1-.67,9.76,9.76,0,0,0-3.9-3.85,9.38,9.38,0,0,0-3.72-1.06,1.32,1.32,0,0,1-1.11-.8,1.2,1.2,0,0,0,.86-.26,1.3,1.3,0,0,0,.4-1.58h.05a12,12,0,0,1,4.76,1.36,10.83,10.83,0,0,1,1.49.94Z"/><path class="cls-1" d="M183.35,195.78a1.3,1.3,0,0,0,1,.67,5.93,5.93,0,0,1-2.29,3.86l-1.67,1.27a6,6,0,0,1-8.42-1.15l-5-6.55a9.49,9.49,0,0,1,3.28-4.56l2-1.51,1.33,1.75a1.33,1.33,0,0,0,1,.51,1.32,1.32,0,0,0,1.11.8,9.37,9.37,0,0,1,6.84,3.72A9.26,9.26,0,0,1,183.35,195.78Z"/><path class="cls-1" d="M178.25,185.35l3.93,5.18a10.83,10.83,0,0,0-1.49-.94,12,12,0,0,0-4.76-1.36h-.05a1.22,1.22,0,0,0-.15-.27l-1.23-1.61A9.48,9.48,0,0,1,178.25,185.35Z"/><path class="cls-1" d="M146.11,69.73c30.11,12.2,45.47,44.42,34.31,72s-44.62,40-74.72,27.78-45.47-44.42-34.31-72S116,57.53,146.11,69.73Zm25.12,34.5c2.48-2.48,1.28-7.71-2.68-11.68s-9.2-5.18-11.68-2.69-1.29,7.71,2.68,11.68S168.74,106.71,171.23,104.23Zm-1.55,47.71a5.29,5.29,0,1,0-7.21-7.75,49.32,49.32,0,0,1-4.19,3.49,52.09,52.09,0,0,1-10.39,6A48.1,48.1,0,0,1,117,156.13a49.93,49.93,0,0,1-9.82-3.58,5.29,5.29,0,0,0-4.65,9.51,60.72,60.72,0,0,0,11.9,4.34,58.79,58.79,0,0,0,37.68-3,62.13,62.13,0,0,0,12.52-7.22A58.05,58.05,0,0,0,169.68,151.94ZM151.57,86.49a5.29,5.29,0,0,0-2.51-7,60.37,60.37,0,0,0-11.94-4.21,59.3,59.3,0,0,0-19.06-1.41,58.71,58.71,0,0,0-18.58,4.82A62.6,62.6,0,0,0,87,86a61.48,61.48,0,0,0-5,4.28A5.29,5.29,0,1,0,89.28,98a48.52,48.52,0,0,1,4.16-3.53,51.81,51.81,0,0,1,10.32-6.1,48.22,48.22,0,0,1,30.9-2.79A50.29,50.29,0,0,1,144.52,89,5.29,5.29,0,0,0,151.57,86.49Z"/><path class="cls-1" d="M168.48,172.49l9.77,12.86a9.48,9.48,0,0,0-3.75,1l-8.7-11.47C166.72,174.12,167.61,173.32,168.48,172.49Z"/><path class="cls-1" d="M175.52,86.22a64.83,64.83,0,0,1-7,86.27l-2-2.64a6,6,0,0,0-8.41-1.15L156.39,170a6,6,0,0,0-1.15,8.42l2,2.64a64.84,64.84,0,1,1,18.28-94.81Zm4.9,55.47c11.16-27.54-4.2-59.76-34.31-72S82.55,70,71.39,97.51s4.2,59.76,34.31,72S169.26,169.24,180.42,141.69Z"/><path class="cls-1" d="M175.88,188.23a1.3,1.3,0,0,1-.4,1.58,1.2,1.2,0,0,1-.86.26,1.19,1.19,0,0,1-.11-.62A1.32,1.32,0,0,1,175.88,188.23Z"/><path class="cls-1" d="M175.88,188.23a1.32,1.32,0,0,0-1.37,1.22,1.19,1.19,0,0,0,.11.62,1.33,1.33,0,0,1-1-.51l-1.33-1.75.68-.52a8.75,8.75,0,0,1,1.53-.94l1.23,1.61A1.22,1.22,0,0,1,175.88,188.23Z"/><path class="cls-1" d="M165.8,174.88l8.7,11.47a8.75,8.75,0,0,0-1.53.94l-.68.52-8.54-11.25C164.45,176,165.13,175.46,165.8,174.88Z"/><path class="cls-1" d="M163.75,176.56l8.54,11.25-2,1.51a9.49,9.49,0,0,0-3.28,4.56L157.24,181a65.59,65.59,0,0,0,5.86-4Z"/><path class="cls-1" d="M168.55,92.55c4,4,5.16,9.2,2.68,11.68s-7.72,1.28-11.68-2.69-5.16-9.2-2.68-11.68S164.58,88.58,168.55,92.55Z"/><path class="cls-1" d="M170,144.46a5.29,5.29,0,0,1-.27,7.48,58.05,58.05,0,0,1-5.09,4.23,62.13,62.13,0,0,1-12.52,7.22,58.79,58.79,0,0,1-37.68,3,60.72,60.72,0,0,1-11.9-4.34,5.29,5.29,0,0,1,4.65-9.51,49.93,49.93,0,0,0,9.82,3.58,48.1,48.1,0,0,0,30.93-2.47,52.09,52.09,0,0,0,10.39-6,49.32,49.32,0,0,0,4.19-3.49A5.29,5.29,0,0,1,170,144.46Z"/><path class="cls-1" d="M166.48,169.85l2,2.64c-.87.83-1.76,1.63-2.68,2.39l-2.87-3.78a1.32,1.32,0,0,0-2.11,1.6l2.93,3.86-.65.5a65.59,65.59,0,0,1-5.86,4l-2-2.64a6,6,0,0,1,1.15-8.42l1.68-1.27A6,6,0,0,1,166.48,169.85Z"/><path class="cls-1" d="M162.93,171.1l2.87,3.78c-.67.58-1.35,1.14-2.05,1.68l-2.93-3.86a1.32,1.32,0,0,1,2.11-1.6Z"/><path class="cls-1" d="M149.06,79.44A5.29,5.29,0,1,1,144.52,89a50.29,50.29,0,0,0-9.86-3.47,48.22,48.22,0,0,0-30.9,2.79,51.81,51.81,0,0,0-10.32,6.1A48.52,48.52,0,0,0,89.28,98,5.29,5.29,0,1,1,82,90.27,61.48,61.48,0,0,1,87,86a62.6,62.6,0,0,1,12.45-7.35,58.71,58.71,0,0,1,18.58-4.82,59.3,59.3,0,0,1,19.06,1.41A60.37,60.37,0,0,1,149.06,79.44Z"/><path class="cls-2" d="M157.24,181a64.85,64.85,0,1,1,11.24-8.54"/><path class="cls-2" d="M167,193.88,157.24,181l-2-2.64a6,6,0,0,1,1.15-8.42l1.68-1.27a6,6,0,0,1,8.41,1.15l2,2.64,9.77,12.86"/><path class="cls-2" d="M174.5,186.35l-8.7-11.47-2.87-3.78a1.32,1.32,0,0,0-2.11,1.6"/><polyline class="cls-2" points="160.82 172.7 163.75 176.56 172.29 187.81"/><path class="cls-2" d="M249.28,271.85l.76,1a9.64,9.64,0,0,1-1.84,13.49l-2.68,2A9.63,9.63,0,0,1,232,286.53l-.56-.74-63-83a9.61,9.61,0,0,1-1.44-8.93,9.49,9.49,0,0,1,3.28-4.56l2-1.51.68-.52a8.75,8.75,0,0,1,1.53-.94,9.48,9.48,0,0,1,3.75-1,9.57,9.57,0,0,1,8.21,3.78Z"/><path class="cls-2" d="M186.65,200.16l49.09,64.63a1.32,1.32,0,1,0,2.1-1.6l-49.08-64.63a1.31,1.31,0,0,0-1.85-.26A1.33,1.33,0,0,0,186.65,200.16Z"/><path class="cls-2" d="M174.62,190.07a1.32,1.32,0,0,0,1.11.8,9.37,9.37,0,0,1,6.84,3.72,9.26,9.26,0,0,1,.78,1.19,1.3,1.3,0,0,0,1,.67,1.24,1.24,0,0,0,.79-.15,1.32,1.32,0,0,0,.51-1.8,12.12,12.12,0,0,0-1-1.51,11.92,11.92,0,0,0-2.5-2.46,10.83,10.83,0,0,0-1.49-.94,12,12,0,0,0-4.76-1.36h-.05a1.32,1.32,0,0,0-1.37,1.22A1.19,1.19,0,0,0,174.62,190.07Z"/><path class="cls-3" d="M233.92,285q-.28-.33-.54-.66a8.85,8.85,0,0,1,13.89-11,9.85,9.85,0,0,1,.7,1"/><path class="cls-2" d="M146.11,69.73c30.11,12.2,45.47,44.42,34.31,72s-44.62,40-74.72,27.78-45.47-44.42-34.31-72S116,57.53,146.11,69.73Z"/><path class="cls-2" d="M89.28,98a48.52,48.52,0,0,1,4.16-3.53,51.81,51.81,0,0,1,10.32-6.1,48.22,48.22,0,0,1,30.9-2.79A50.29,50.29,0,0,1,144.52,89a5.29,5.29,0,1,0,4.54-9.56,60.37,60.37,0,0,0-11.94-4.21,59.3,59.3,0,0,0-19.06-1.41,58.71,58.71,0,0,0-18.58,4.82A62.6,62.6,0,0,0,87,86a61.48,61.48,0,0,0-5,4.28A5.29,5.29,0,1,0,89.28,98Z"/><path class="cls-4" d="M168.55,92.55c4,4,5.16,9.2,2.68,11.68s-7.72,1.28-11.68-2.69-5.16-9.2-2.68-11.68S164.58,88.58,168.55,92.55Z"/><path class="cls-2" d="M162.47,144.19a49.32,49.32,0,0,1-4.19,3.49,52.09,52.09,0,0,1-10.39,6A48.1,48.1,0,0,1,117,156.13a49.93,49.93,0,0,1-9.82-3.58,5.29,5.29,0,0,0-4.65,9.51,60.72,60.72,0,0,0,11.9,4.34,58.79,58.79,0,0,0,37.68-3,62.13,62.13,0,0,0,12.52-7.22,58.05,58.05,0,0,0,5.09-4.23,5.29,5.29,0,1,0-7.21-7.75Z"/></svg>